/* XPM */
static char *_37395a5202f4983ff0e06cce77c87e1JGcpVk20AZ8ACKUm[] = {
/* columns rows colors chars-per-pixel */
"16 16 107 2 ",
"   c None",
".  c #CF6901",
"X  c #D06901",
"o  c #D16A02",
"O  c #D26B03",
"+  c #D36B03",
"@  c #D36C03",
"#  c #D46C04",
"$  c #D56D04",
"%  c #D76E05",
"&  c #D76F05",
"*  c #D97006",
"=  c #DA7107",
"-  c #DB7107",
";  c #DC7208",
":  c #DD7308",
">  c #DE7409",
",  c #DF7409",
"<  c #E0750A",
"1  c #E1760A",
"2  c #E1760B",
"3  c #E2760B",
"4  c #E2770B",
"5  c #E3770B",
"6  c #E4780C",
"7  c #E5790C",
"8  c #E5790D",
"9  c #E6790D",
"0  c #E67A0D",
"q  c #E77A0E",
"w  c #E87B0E",
"e  c #E97C0E",
"r  c #E97C0F",
"t  c #EA7C0F",
"y  c #EB7D0F",
"u  c #EB7D10",
"i  c #EC7E10",
"p  c #ED7F11",
"a  c #EE7F11",
"s  c #EE8011",
"d  c #EF8012",
"f  c #F08112",
"g  c #F18113",
"h  c #F18213",
"j  c #F28213",
"k  c #F28313",
"l  c #F38314",
"z  c #F48414",
"x  c #F58515",
"c  c #F78616",
"v  c #F98817",
"b  c #FB8918",
"n  c #FC8A18",
"m  c #FE8B19",
"M  c #FF8C1A",
"N  c #DE8834",
"B  c #EF8820",
"V  c #F78D24",
"C  c #FF9328",
"Z  c #E08B35",
"A  c #FB9734",
"S  c #FE9A37",
"D  c #FF9A37",
"F  c #E29344",
"G  c #F1A457",
"H  c #F3A75C",
"J  c #F8AB5E",
"K  c #E4A362",
"L  c #FFB062",
"P  c #F6B06B",
"I  c #FBB46E",
"U  c #FFB770",
"Y  c #EFBA84",
"T  c #F3BD87",
"R  c #FBBD80",
"E  c #F1BD8B",
"W  c #F3C495",
"Q  c #F8C490",
"!  c #FFCA94",
"~  c #F6CA9D",
"^  c #F5CDA4",
"/  c #F8CFA6",
"(  c #F1CCA8",
")  c #FED0A3",
"_  c #FDD0A5",
"`  c #F5D2AF",
"'  c #FFD4AA",
"]  c #FED8B2",
"[  c #FBD9B6",
"{  c #FCD9B7",
"}  c #FEDBB9",
"|  c #FFDCBA",
" . c #F8DDC3",
".. c #FADFC4",
"X. c #F8E5D1",
"o. c #FDE9D4",
"O. c #FEE9D4",
"+. c #FFEAD5",
"@. c #FFEBD7",
"#. c #FFEDDA",
"$. c #FDF7F0",
"%. c #FDF7F1",
"&. c #FEF7F1",
"*. c #FEF8F1",
"=. c #FFF8F1",
"-. c #FFF8F2",
";. c white",
/* pixels */
"          M M M M n v           ",
"      M M M D L D b x h d       ",
"    M M M M U -.;.I x h i w     ",
"  M M M M M -.| ;.{ h i t 9 3   ",
"  M M M M U #.) ;.-.d u 9 3 ,   ",
"M M M M M ! O.O.;.;.H t 9 3 ; = ",
"M M M M C O.;.-.[ ;./ 9 3 , = % ",
"M M M M O.;.;.J P ;.%.W 3 ; = % ",
"M M M ' ;.;.R h B ;.;.` Y = % @ ",
"M M ' ;.;._ ;.;...~ ^ E %.F % O ",
"M M -.;.] O.;.;.;.;.;.;.X.( O O ",
"  M ' } -.;.Q G T  .%.;.;.K O   ",
"  M D A V h i t 9 3 ; Z N O .   ",
"    n x l d t 9 3 , = % % O     ",
"      x h i w 9 3 ; = % O       ",
"          t 9 3 , = %           "
};
