/* XPM */
static char *_16238901d0d4839ec165bc820e14b2fmZvjGhlToiQLt6UJ[] = {
/* columns rows colors chars-per-pixel */
"64 64 129 2 ",
"   c None",
".  c #CE6700",
"X  c #CF6801",
"o  c #D36C03",
"O  c #D86F06",
"+  c #DA7107",
"@  c #DD7309",
"#  c #DE7B17",
"$  c #E1760B",
"%  c #E5790D",
"&  c #E97C0F",
"*  c #EC7E10",
"=  c #E47F1A",
"-  c #DA7F23",
";  c #EF8012",
":  c #E7801B",
">  c #ED861F",
",  c #F38314",
"<  c #F88716",
"1  c #FA8817",
"2  c #FF8C1A",
"3  c #DD8125",
"4  c #DB8732",
"5  c #EE8720",
"6  c #E48629",
"7  c #E7892A",
"8  c #EC8D2D",
"9  c #F48B23",
"0  c #F88F25",
"q  c #F08F2F",
"w  c #FC9127",
"e  c #FF9328",
"r  c #E48E37",
"t  c #E79038",
"y  c #EC943B",
"u  c #F69332",
"i  c #FE9A37",
"p  c #F3993F",
"a  c #E49445",
"s  c #EB9B4A",
"d  c #F79B41",
"f  c #F99D42",
"g  c #F29F4D",
"h  c #E49C53",
"j  c #FFA245",
"k  c #F5A14E",
"l  c #E9A056",
"z  c #ECA259",
"x  c #FAA551",
"c  c #FFA953",
"v  c #F2A75C",
"b  c #F5A95C",
"n  c #F9AC5F",
"m  c #E4A362",
"M  c #ECA966",
"N  c #FEAF61",
"B  c #F2AE69",
"V  c #FFB062",
"C  c #F6B16C",
"Z  c #FAB36D",
"A  c #E9AE73",
"S  c #EDB275",
"D  c #F1B477",
"F  c #FEB770",
"G  c #F6B87A",
"H  c #FDBD7E",
"J  c #EDB883",
"K  c #F3BD86",
"L  c #ECBF91",
"P  c #F7C089",
"I  c #FBC28A",
"U  c #EEC092",
"Y  c #F4C596",
"T  c #FECC9B",
"R  c #F4CCA4",
"E  c #F9CFA6",
"W  c #F9D0A7",
"Q  c #FBD1A7",
"!  c #FCD2A8",
"~  c #FCD2A9",
"^  c #FDD3A9",
"/  c #FED3A9",
"(  c #FFD4AA",
")  c #FCD2A8",
"_  c #F3D2B2",
"`  c #F4D3B2",
"'  c #F6D5B4",
"]  c #F6D4B3",
"[  c #FBD8B6",
"{  c #FCD9B7",
"}  c #FDDAB7",
"|  c #FFDBB8",
" . c #FEDBB8",
".. c #F6DCC2",
"X. c #F9DEC3",
"o. c #FADFC4",
"O. c #FADFC4",
"+. c #FBE0C4",
"@. c #FCE1C5",
"#. c #FDE1C5",
"$. c #FFE3C6",
"%. c #FCE0C5",
"&. c #F8E4D1",
"*. c #F9E6D2",
"=. c #FAE6D2",
"-. c #FBE7D3",
";. c #FCE8D3",
":. c #FDE8D4",
">. c #FDE9D4",
",. c #FEE9D4",
"<. c #FFEAD5",
"1. c #FDE8D4",
"2. c #FAEDE1",
"3. c #FBEEE1",
"4. c #FCEFE2",
"5. c #FDEFE2",
"6. c #FCEFE1",
"7. c #FEF0E3",
"8. c #FFF1E3",
"9. c #FCF6F0",
"0. c #FDF7F0",
"q. c #FDF7F1",
"w. c #FEF7F1",
"e. c #FEF8F1",
"r. c #FFF8F1",
"t. c #FFF8F2",
"y. c #FFF8F1",
"u. c white",
"i. c white",
/* pixels */
"                                                  2 2 2 2 2 2 2 2 2 2 2 2 1 1                                                   ",
"                                            2 2 2 2 2 2 2 2 2 2 2 2 2 2 1 1 1 1 1 <                                             ",
"                                      2 2 2 2 2 2 2 2 2 2 2 2 2 2 2 2 1 1 1 1 1 < < < < <                                       ",
"                                  2 2 2 2 2 2 2 2 2 2 2 2 2 2 2 2 2 1 1 1 1 1 < < < < < , , ,                                   ",
"                              2 2 2 2 2 2 2 2 2 2 2 2 2 2 2 2 2 2 2 1 1 1 < < < < < < , , , ; ; ;                               ",
"                            2 2 2 2 2 2 2 2 2 2 2 2 2 2 2 2 2 2 2 1 1 1 1 < < < < < < , , , ; * * *                             ",
"                        2 2 2 2 2 2 2 2 2 2 2 2 2 2 2 e c 2 2 2 2 1 1 1 < < < < < , , , , , ; * * * * &                         ",
"                      2 2 2 2 2 2 2 2 2 2 2 2 2 2 2 2 e u.u.$.T N i 1 1 1 < < < < , , , , ; ; * * * & & &                       ",
"                    2 2 2 2 2 2 2 2 2 2 2 2 2 2 2 2 2 2 | u.u.u.u.u.8.{ x < < < < , , , , ; * * * & & & & %                     ",
"                  2 2 2 2 2 2 2 2 2 2 2 2 2 2 2 2 2 j 2 H u.u.u.u.u.u.u.<.< < < < , , , ; ; * * * & & & % % %                   ",
"                2 2 2 2 2 2 2 2 2 2 2 2 2 2 2 2 2 2 <.i i u.u.u.u.u.u.u.u.u < < , , , , ; * * * & & & % % % % %                 ",
"              2 2 2 2 2 2 2 2 2 2 2 2 2 2 2 2 2 2 j u.H 2 <.u.u.u.u.u.u.u.H < , , , , ; ; * * * & & & % % % % $ $               ",
"            2 2 2 2 2 2 2 2 2 2 2 2 2 2 2 2 2 2 2 ( u.| 2 H u.u.u.u.u.u.u.$.< , , , ; ; * * * & & & % % % % $ $ $ $             ",
"            2 2 2 2 2 2 2 2 2 2 2 2 2 2 2 2 2 2 e t.u.u.e j u.u.u.u.u.u.u.u.9 , , ; ; * * * * & & & % % % % $ $ $ $             ",
"          2 2 2 2 2 2 2 2 2 2 2 2 2 2 2 2 2 2 2 F u.u.u.F 1 8.u.u.u.u.u.u.u.Z , , ; ; * * * & & & % % % % $ $ $ $ @ @           ",
"        2 2 2 2 2 2 2 2 2 2 2 2 2 2 2 2 2 2 2 2 <.u.u.u.I 1 T u.u.u.u.u.u.u.[ , , ; * * * & & & & % % % % $ $ $ $ @ @ @         ",
"        2 2 2 2 2 2 2 2 2 2 2 2 2 2 2 2 2 2 2 j u.u.u.<.w 1 f u.u.u.u.u.u.u.u., ; ; * * * & & & % % % % $ $ $ $ @ @ @ @         ",
"      2 2 2 2 2 2 2 2 2 2 2 2 2 2 2 2 2 2 2 2 ( u.u.<.w w f 1 t.u.u.u.u.u.u.u.b ; * * * & & & % % % % % $ $ $ @ @ @ @ @ +       ",
"      2 2 2 2 2 2 2 2 2 2 2 2 2 2 2 2 2 2 2 e u.u.<.w w <./ 1 / u.u.u.u.u.u.u.Q ; * * * & & & % % % % $ $ $ $ @ @ @ @ + +       ",
"    2 2 2 2 2 2 2 2 2 2 2 2 2 2 2 2 2 2 2 2 H u.t.j 1 / u.t.< n u.u.u.u.u.u.u.t.* * * & & & % % % % $ $ $ $ @ @ @ @ @ + + +     ",
"    2 2 2 2 2 2 2 2 2 2 2 2 2 2 2 2 2 2 2 2 8.t.j 1 / u.u.u.f < t.u.u.u.u.u.u.u.v * * & & & % % % % $ $ $ $ @ @ @ @ + + + O     ",
"    2 2 2 2 2 2 2 2 2 2 2 2 2 2 2 2 2 2 2 c t.j 1 / u.u.u.u.T < { u.u.u.u.u.u.u.Y * & & & % % % % $ $ $ $ @ @ @ @ + + + + O     ",
"  2 2 2 2 2 2 2 2 2 2 2 2 2 2 2 2 2 2 2 2 ( F 1 F u.u.u.u.u.8.< Z u.u.u.u.u.u.u.5.& & & & % % % % $ $ $ $ @ @ @ @ + + + O O O   ",
"  2 2 2 2 2 2 2 2 2 2 2 2 2 2 2 2 2 2 2 2 F 2 F u.u.u.u.u.u.u.d 9 u.u.u.u.u.u.u.u.y & & % % % % $ $ $ $ @ @ @ @ + + + + O O O   ",
"  2 2 2 2 2 2 2 2 2 2 2 2 2 2 2 2 2 2 2 2 2 F u.u.u.u.u.u.u.u.I , [ u.u.u.u.u.u.u.Y & % % % % % $ $ $ @ @ @ @ @ + + + O O O O   ",
"2 2 2 2 2 2 2 2 2 2 2 2 2 2 2 2 2 2 2 2 2 j u.u.u.u.u.u.u.u.u.<., C u.u.u.u.u.u.u.-.& % % % % $ $ $ $ @ @ @ @ + + + O O O O O o ",
"2 2 2 2 2 2 2 2 2 2 2 2 2 2 2 2 2 2 2 2 j t.u.u.u.u.u.u.u.u.u.Q , u u.u.u.u.u.u.u.u.8 % % % $ $ $ $ @ @ @ @ @ + + + O O O O O o ",
"2 2 2 2 2 2 2 2 2 2 2 2 2 2 2 2 2 2 2 j t.u.u.u.u.u.u.u.u.u.Q , , , ;.u.u.u.u.u.u.u.D % % % $ $ $ $ @ @ @ @ + + + O O O O O O o ",
"2 2 2 2 2 2 2 2 2 2 2 2 2 2 2 2 2 2 e 8.u.u.u.u.u.u.u.u.u.$., , , , G u.u.u.u.u.u.u.-.% z 7 $ $ $ @ @ @ @ + + + O O O O O o o o ",
"2 2 2 2 2 2 2 2 2 2 2 2 2 2 2 2 2 e <.u.u.u.u.u.u.u.u.u.<.9 , , , ; q u.u.u.u.u.u.u.u.: 7 -.$ $ $ @ @ @ @ + + + O O O O O o o o ",
"2 2 2 2 2 2 2 2 2 2 2 2 2 2 2 2 e <.u.u.u.u.u.u.u.u.u.<.9 , , , ; ; * 5.u.u.u.u.u.u.u.M $ -.E $ @ @ @ @ + + + + O O O O o o o o ",
"2 2 2 2 2 2 2 2 2 2 2 2 2 2 2 2 | u.u.u.u.u.u.u.u.u.8.9 , , , , ; * * Y u.u.u.u.u.u.u.' $ Y u.M @ @ @ @ + + + O O O O O o o o o ",
"2 2 2 2 2 2 2 2 2 2 2 2 2 2 2 ( u.u.u.u.u.u.u.u.u.t.d < , , , ; ; * * y u.u.u.u.u.u.u.u.= t u.w.r @ @ + + + O O O O O O o o o o ",
"2 2 2 2 2 2 2 2 2 2 2 2 2 2 ( u.u.u.u.u.u.u.u.u.t.d < , , , , ; * * * & 5.u.u.u.u.u.u.u.l $ 3.u.3.# @ + + + O O O O O o o o o X ",
"2 2 2 2 2 2 2 2 2 2 2 2 2 I u.u.u.u.u.u.u.u.u.u.f < , , , , ; * * * * & E u.u.u.u.u.u.u.E $ Y u.u.` + + + O O O O O O o o o o o ",
"2 2 2 2 2 2 2 2 2 2 2 2 F u.u.u.u.u.u.u.u.u.u.Z < d d , , , ; * * * & & z u.u.u.u.u.u.u.w.@ l u.u.u.J + + O O O O O o o o o o o ",
"2 2 2 2 2 2 2 2 2 2 2 F u.u.u.u.u.u.u.u.u.u.Z < Z u.u.t.+.P g 5 * & & & & K X.u.u.u.u.u.u.l @ w.u.u.u.a O O O O o o o o o o X X ",
"2 2 2 2 2 2 2 2 2 2 c u.u.u.u.u.u.u.u.u.u.H < n u.u.u.u.u.u.u.u.-.E B y % % % % t S E 3.u.R @ R u.u.u.w.3 O O O o o o o o X o X ",
"2 2 2 2 2 2 2 2 2 j t.u.u.u.u.u.u.u.u.u./ < d t.u.u.u.u.u.u.u.u.u.u.u.u.w.X.K s $ $ $ @ 6 r @ a u.u.u.u.&.O O O o o o o o X X X ",
"  2 2 2 2 2 2 2 j t.u.u.u.u.u.u.u.u.u./ < f t.u.u.u.u.u.u.u.u.u.u.u.u.u.u.u.u.u.u.-.Y M 6 @ @ + + a A _ 3.R O O o o o o X X .   ",
"  2 2 2 2 2 2 2 $.u.u.u.u.u.u.u.u.u./ < d t.u.u.u.u.u.u.u.u.u.u.u.u.u.u.u.u.u.u.u.u.u.u.u.w.` J a + O O O - O o o o o o o X X   ",
"  2 2 2 2 2 2 2 T u.u.u.u.u.u.u.u.<.0 0 <.u.u.u.u.u.u.u.u.u.u.u.u.u.u.u.u.u.u.u.u.u.u.u.u.u.u.u.u.u.-.U m - O o o o o o X X X   ",
"    2 2 2 2 2 2 c u.u.u.u.u.u.u.<.0 < f I $.u.u.u.u.u.u.u.u.u.u.u.u.u.u.u.u.u.u.u.u.u.u.u.u.u.u.u.u.u.u.u.u.w.L o o o o X X     ",
"    2 2 2 2 2 2 2 t.u.u.u.u.u.<.0 0 f < < , , p G Q 5.u.u.u.u.u.u.u.u.u.u.u.u.u.u.u.u.u.u.u.u.u.u.u.u.u.u.u.w.4 o o o X X X     ",
"    2 2 2 2 2 2 2 ( u.u.u.u.t.f < / u.t.$.I k 9 ; ; * > v K o.u.u.u.u.u.u.u.u.u.u.u.u.u.u.u.u.u.u.u.u.u.u.w.4 o o X X . X .     ",
"      2 2 2 2 2 2 V u.u.u.t.f < / u.u.u.u.u.u.u.;.E B 8 & & & % s D ' 5.u.u.u.u.u.u.u.u.u.u.u.u.u.u.u.u.u.4 o o o X X . X       ",
"      2 2 2 2 2 2 2 u.u.t.f 1 / u.u.u.u.u.u.u.u.u.5.o.Y B & & % % % % $ 7 l Y ..u.u.u.u.u.u.u.u.u.u.u.u.m o o o X X . X .       ",
"        2 2 2 2 2 1 | u.Z 1 Z u.u.u.<.$.I I k p * * * & & & % % % % $ $ $ $ @ @ @ a S ` 3.u.u.u.u.u.u.m o o o o X . X X         ",
"        2 2 2 2 2 1 F Z 1 < H x u < , , , ; * * * * * & & & % % % % $ $ $ $ @ @ @ @ + + + 3 h U ..u.m o o o o o X X X .         ",
"          2 2 2 1 1 1 1 1 1 < < < < , , , ; ; * * * & & & % % % % $ $ $ $ @ @ @ @ + + + + O O O O O o o o o o o X X .           ",
"            2 1 1 1 1 1 1 1 < < < , , , , ; * * * & & & & % % % % $ $ $ $ @ @ @ @ + + + O O O O O o o o o o X X X X             ",
"            2 1 1 1 1 1 1 < < < < , , ; ; ; * * * & & & % % % % $ $ $ $ @ @ @ @ + + + + O O O O o o o o o X X X X .             ",
"              1 1 1 1 < < < < < , , , , ; * * * & & & % % % % % $ $ $ @ @ @ @ @ + + + O O O O o O o o o o X X . X               ",
"                1 < 1 < < < < < , , , ; ; * * * & & & % % % % $ $ $ $ @ @ @ @ + + O O O O O O o o o o o X X X X                 ",
"                  < < < < < < , , , , ; * * * & & & % % % % % $ $ $ @ @ @ @ @ + O O O O O O o o o o o o X X X                   ",
"                    < < < , , , , , ; * * * * & & & % % % % $ $ $ $ @ @ @ @ + + O O O O O O o o o o o o X X                     ",
"                      < < < , , , , ; * * * & & & % % % % $ $ $ $ @ @ @ @ + + + + O O O O O o o o o X X X                       ",
"                        < , , , , ; * * * & & & & % % % % $ $ $ $ @ @ @ @ + + + O O O O O O o o o o X X                         ",
"                            , , ; * * * * & & & % % % % $ $ $ $ @ @ @ @ + + + + O O O O O o o o o X                             ",
"                              , ; * * * & & & % % % % % $ $ $ $ @ @ @ @ + + + O O O O O O o o o o                               ",
"                                  * * * & & & % % % % $ $ $ $ @ @ @ @ + + + O O O O O o o o o                                   ",
"                                      & & & % % % % % $ $ $ @ @ @ @ @ + + + O O O O o o o                                       ",
"                                            % % % % $ $ $ $ @ @ @ @ + + + O O O O O                                             ",
"                                                  $ $ $ $ @ @ @ @ + + + + O O                                                   "
};
