/* XPM */
static char *cc7e18957d0e49c9b6f298bf538c2021bOQ8KTwC1Kd9htI1[] = {
/* columns rows colors chars-per-pixel */
"32 32 202 2 ",
"   c None",
".  c #CE6801",
"X  c #CF6801",
"o  c #CF6901",
"O  c #D06901",
"+  c #D06902",
"@  c #D16A02",
"#  c #D26A02",
"$  c #D26B03",
"%  c #D36B03",
"&  c #D36C03",
"*  c #D46C03",
"=  c #D46C04",
"-  c #D46D04",
";  c #D56D04",
":  c #D66D04",
">  c #D66D05",
",  c #D66E05",
"<  c #D76E05",
"1  c #D76F05",
"2  c #D86F06",
"3  c #D97006",
"4  c #DA7007",
"5  c #DA7107",
"6  c #DB7107",
"7  c #DB7207",
"8  c #DC7208",
"9  c #DD7308",
"0  c #DD7309",
"q  c #DE7309",
"w  c #DE7409",
"e  c #DF7409",
"r  c #DF750A",
"t  c #D67413",
"y  c #DA7816",
"u  c #DB7916",
"i  c #E0750A",
"p  c #E1760A",
"a  c #E1760B",
"s  c #E2760B",
"d  c #E2770B",
"f  c #E3770B",
"g  c #E3770C",
"h  c #E3780C",
"j  c #E4780C",
"k  c #E5790C",
"l  c #E5790D",
"z  c #E6790D",
"x  c #E67A0D",
"c  c #E77A0D",
"v  c #E77A0E",
"b  c #E87B0E",
"n  c #E97C0E",
"m  c #E97C0F",
"M  c #EA7C0F",
"N  c #EA7D0F",
"B  c #EB7D0F",
"V  c #EB7D10",
"C  c #EB7E10",
"Z  c #EC7E10",
"A  c #ED7E10",
"S  c #ED7F11",
"D  c #EE7F11",
"F  c #EE8011",
"G  c #EF8012",
"H  c #F08112",
"J  c #F18112",
"K  c #F18113",
"L  c #F18213",
"P  c #F28213",
"I  c #F28313",
"U  c #F38314",
"Y  c #F48414",
"T  c #F58415",
"R  c #F58515",
"E  c #F68515",
"W  c #F68616",
"Q  c #F78616",
"!  c #F88716",
"~  c #F88717",
"^  c #F98717",
"/  c #F98817",
"(  c #FA8817",
")  c #FA8818",
"_  c #FB8918",
"`  c #FC8A18",
"'  c #FC8A19",
"]  c #FD8B19",
"[  c #FE8B19",
"{  c #FE8C1A",
"}  c #FF8C1A",
"|  c #DB8832",
" . c #DC8833",
".. c #E18527",
"X. c #EB8C2C",
"o. c #ED8C2D",
"O. c #EE8E2E",
"+. c #F38A22",
"@. c #F58C23",
"#. c #F68C24",
"$. c #F78D24",
"%. c #FF9328",
"&. c #E28C36",
"*. c #E79039",
"=. c #EC933B",
"-. c #F59331",
";. c #FF9A37",
":. c #F89B3F",
">. c #E09141",
",. c #E79544",
"<. c #EF9D4B",
"1. c #F99C40",
"2. c #FC9F42",
"3. c #F19E4A",
"4. c #F09E4C",
"5. c #E49C53",
"6. c #EA9E52",
"7. c #FEA245",
"8. c #F9A34E",
"9. c #EAA057",
"0. c #FAA550",
"q. c #FEA750",
"w. c #F3A75C",
"e. c #F9A959",
"r. c #FAAB5C",
"t. c #FAAD5F",
"y. c #FEAD5D",
"u. c #FFAE5E",
"i. c #EAA866",
"p. c #FBAD60",
"a. c #FDAF61",
"s. c #FEAF61",
"d. c #FFB062",
"f. c #FFB468",
"g. c #F8B26C",
"h. c #F9B36D",
"j. c #FCB56F",
"k. c #E9AE73",
"l. c #ECB075",
"z. c #EEB276",
"x. c #EFB376",
"c. c #FFB770",
"v. c #FBBA77",
"b. c #F4B779",
"n. c #F5B77A",
"m. c #F6B87A",
"M. c #FFBF7F",
"N. c #EBB682",
"B. c #F1BB85",
"V. c #F2BC86",
"C. c #F3BC86",
"Z. c #F4BE87",
"A. c #F7C088",
"S. c #FDC48C",
"D. c #FFC68D",
"F. c #F4C596",
"G. c #FFCD9B",
"H. c #F1CAA3",
"J. c #F2CAA3",
"K. c #F3CBA3",
"L. c #F4CCA4",
"P. c #F8CFA6",
"I. c #FAD0A7",
"U. c #FBD1A7",
"Y. c #FCD2A8",
"T. c #FDD3A9",
"R. c #FFD4AA",
"E. c #F3D2B2",
"W. c #FAD7B5",
"Q. c #FAD8B5",
"!. c #FBD8B6",
"~. c #FCD9B6",
"^. c #FDDAB7",
"/. c #FFDBB8",
"(. c #F8DEC3",
"). c #F9DEC3",
"_. c #FBE0C4",
"`. c #FCE0C5",
"'. c #FFE3C6",
"]. c #F7E4D1",
"[. c #F9E5D2",
"{. c #F9E6D2",
"}. c #FBE7D3",
"|. c #FCE8D4",
" X c #FDE9D4",
".X c #FEE9D4",
"XX c #FFEAD5",
"oX c #FAEEE1",
"OX c #FBEEE1",
"+X c #FCEFE1",
"@X c #FDF0E2",
"#X c #FEF0E2",
"$X c #FEF0E3",
"%X c #FFF1E3",
"&X c #FDF6F0",
"*X c #FDF7F0",
"=X c #FDF7F1",
"-X c #FEF7F1",
";X c #FEF8F1",
":X c #FFF8F1",
">X c #FFF8F2",
",X c white",
/* pixels */
"                      } } } } } } } ` _ (                       ",
"                  } } } } } } } } } ` _ ~ R R                   ",
"              } } } } } } } } } } ` _ ( R R P P G               ",
"            } } } } } } } ;.R.M.7.` ( ~ R U P G D C             ",
"          } } } } } } } } %.%X,X,X,Xp.R R P P D D M b           ",
"        } } } } } } } } ;./.G.,X,X,X~.R U P G D M b c c         ",
"      } } } } } } } } } D.,Xu.,X,X,X,X@.P P D C M c c g f       ",
"    } } } } } } } } } } %X,Xs.:X,X,X,Xh.P G D M b c c f f e     ",
"    } } } } } } } } } d.,XXX2.T.,X,X,XU.G D C M c c f f e q     ",
"  } } } } } } } } } } /.XXu.:Xp.,X,X,X:XG D M b c h f f e q 6   ",
"  } } } } } } } } } ;.XXq.:X,Xt.,X,X,X,Xw.C M c c f f e q 6 2   ",
"} } } } } } } } } } c.f.:X,X,XT.~.,X,X,XP.M b c h f f q q 6 1 1 ",
"} } } } } } } } } } %.:X,X,X,X%Xh.,X,X,X=Xc c h f f e q 6 6 1 1 ",
"} } } } } } } } } %.XX,X,X,X,XU.+.,X,X,X,X=.c g f e q q 6 1 1 1 ",
"} } } } } } } } %.XX,X,X,X,XXXU P !.,X,X,XF.C.f f e q 6 6 1 1 % ",
"} } } } } } } } '.,X,X,X,XXX@.P G b.,X,X,X+Xz.L.e q 6 6 2 1 1 % ",
"} } } } } } } R.,X,X,X,XXX$.P P G o.,X,X,X,X6.,Xi.q 6 1 1 1 & % ",
"} } } } } } R.,X,X,X,X:X:.-.P G D C }.,X,X,Xz.}.=X&.6 1 1 1 % % ",
"} } } } } G.,X,X,X,X:Xe.:X,X%XW.b.<.X.C.(.=X}.z.,XOXy 1 1 % % o ",
"} } } } c.,X,X,X,X:X8.XX,X,X,X,X,X,X,X(.B.9.,...K.OXE.1 * % % o ",
"} } } } :X,X,X,X,Xr.XX,X,X,X,X,X,X,X,X,X,X,X,XOXK.k.>.1 % % % o ",
"  } } } R.,X,X,Xv.1.h.U.XX,X,X,X,X,X,X,X,X,X,X,X,X,X,X].% % o   ",
"  } } } d.,X,Xj.T.,X%X!.m.3.4.Z.(.,X,X,X,X,X,X,X,X,X].t % % o   ",
"    } } } ,XD.T.,X,X'._.A.b.o.b c c *.z.K.OX,X,X,X=X| % % o     ",
"    } } } s.( 0.$.U P G D C M c c f f e q 6 y 5.N. .% % o o     ",
"      } ` _ ~ R R P P D C M b c c f f q q 6 1 1 1 % % % o       ",
"        ` ( R R U P G D M c c h f f e q 6 6 1 1 1 % % o         ",
"          ~ R R P P D C M c c h f e q q 6 2 1 1 % % %           ",
"            R U P G D M b c c f e e q 6 6 1 1 & % o             ",
"              P G D C M c c f f e q 6 6 2 1 1 % %               ",
"                  D M b c c f f e 8 6 2 1 1 &                   ",
"                      c c f f e q 6 6 1 1                       "
};
