<?xml version="1.0" encoding="UTF-8"?>
<svg id="Layer_2" data-name="Layer 2" xmlns="http://www.w3.org/2000/svg" xmlns:xlink="http://www.w3.org/1999/xlink" viewBox="0 0 340.41 340.41">
  <defs>
    <style>
      .cls-1 {
        fill: #fff;
        fill-rule: evenodd;
      }

      .cls-2 {
        fill: url(#linear-gradient);
      }
    </style>
    <linearGradient id="linear-gradient" x1="24.43" y1="87.09" x2="320.21" y2="255.73" gradientUnits="userSpaceOnUse">
      <stop offset=".28" stop-color="#ff8c1a"/>
      <stop offset=".72" stop-color="#dd7208"/>
      <stop offset="1" stop-color="#cd6700"/>
    </linearGradient>
  </defs>
  <g id="Layer_1-2" data-name="Layer 1">
    <g>
      <circle class="cls-2" cx="170.21" cy="170.21" r="170.21"/>
      <g>
        <polygon class="cls-1" points="112.33 125.02 151.6 82.3 142.03 51.76 112.33 125.02"/>
        <polygon class="cls-1" points="197.55 193.09 242.78 203.19 193.58 46.26 148.35 36.16 197.55 193.09"/>
        <polygon class="cls-1" points="286.07 212.86 237.48 150.51 254.84 205.88 286.07 212.86"/>
        <polygon class="cls-1" points="296.42 226.13 135.92 190.28 104.55 224.4 265.05 260.25 296.42 226.13"/>
        <polygon class="cls-1" points="57.86 259.38 169.16 138.31 155.3 94.09 44 215.16 57.86 259.38"/>
        <polygon class="cls-1" points="96.19 233.5 74.54 257.06 152.82 246.15 96.19 233.5"/>
      </g>
    </g>
  </g>
</svg>